<svg width="168" height="141" viewBox="0 0 168 141" fill="none" xmlns="http://www.w3.org/2000/svg">
<path d="M5.046 104V41.36H62.901V54.932H18.705V65.894H54.288V79.466H18.705V104H5.046Z" fill="white"/>
<path d="M56.274 104V54.932H31.74V41.36H94.38V54.932H69.846V104H56.274Z" fill="white"/>
<path d="M83.84 73.68H82V82H78.58V73.68H77.34V70.84H78.58V70.52C78.58 69.1467 78.9733 68.1067 79.76 67.4C80.5467 66.68 81.7 66.32 83.22 66.32C83.4733 66.32 83.66 66.3267 83.78 66.34V69.24C83.1267 69.2 82.6667 69.2933 82.4 69.52C82.1333 69.7467 82 70.1533 82 70.74V70.84H83.84V73.68ZM84.767 76.4C84.767 75.2533 84.9804 74.2467 85.407 73.38C85.847 72.5133 86.4404 71.8467 87.187 71.38C87.9337 70.9133 88.767 70.68 89.687 70.68C90.4737 70.68 91.1604 70.84 91.747 71.16C92.347 71.48 92.807 71.9 93.127 72.42V70.84H96.547V82H93.127V80.42C92.7937 80.94 92.327 81.36 91.727 81.68C91.1404 82 90.4537 82.16 89.667 82.16C88.7604 82.16 87.9337 81.9267 87.187 81.46C86.4404 80.98 85.847 80.3067 85.407 79.44C84.9804 78.56 84.767 77.5467 84.767 76.4ZM93.127 76.42C93.127 75.5667 92.887 74.8933 92.407 74.4C91.9404 73.9067 91.367 73.66 90.687 73.66C90.007 73.66 89.427 73.9067 88.947 74.4C88.4804 74.88 88.247 75.5467 88.247 76.4C88.247 77.2533 88.4804 77.9333 88.947 78.44C89.427 78.9333 90.007 79.18 90.687 79.18C91.367 79.18 91.9404 78.9333 92.407 78.44C92.887 77.9467 93.127 77.2733 93.127 76.42ZM104.041 78.8L106.461 70.84H110.101L106.141 82H101.921L97.9613 70.84H101.621L104.041 78.8ZM116.621 82.16C115.527 82.16 114.541 81.9267 113.661 81.46C112.794 80.9933 112.107 80.3267 111.601 79.46C111.107 78.5933 110.861 77.58 110.861 76.42C110.861 75.2733 111.114 74.2667 111.621 73.4C112.127 72.52 112.821 71.8467 113.701 71.38C114.581 70.9133 115.567 70.68 116.661 70.68C117.754 70.68 118.741 70.9133 119.621 71.38C120.501 71.8467 121.194 72.52 121.701 73.4C122.207 74.2667 122.461 75.2733 122.461 76.42C122.461 77.5667 122.201 78.58 121.681 79.46C121.174 80.3267 120.474 80.9933 119.581 81.46C118.701 81.9267 117.714 82.16 116.621 82.16ZM116.621 79.2C117.274 79.2 117.827 78.96 118.281 78.48C118.747 78 118.981 77.3133 118.981 76.42C118.981 75.5267 118.754 74.84 118.301 74.36C117.861 73.88 117.314 73.64 116.661 73.64C115.994 73.64 115.441 73.88 115.001 74.36C114.561 74.8267 114.341 75.5133 114.341 76.42C114.341 77.3133 114.554 78 114.981 78.48C115.421 78.96 115.967 79.2 116.621 79.2ZM127.695 72.7C128.095 72.0867 128.595 71.6067 129.195 71.26C129.795 70.9 130.462 70.72 131.195 70.72V74.34H130.255C129.402 74.34 128.762 74.5267 128.335 74.9C127.908 75.26 127.695 75.9 127.695 76.82V82H124.275V70.84H127.695V72.7ZM134.55 69.68C133.95 69.68 133.457 69.5067 133.07 69.16C132.697 68.8 132.51 68.36 132.51 67.84C132.51 67.3067 132.697 66.8667 133.07 66.52C133.457 66.16 133.95 65.98 134.55 65.98C135.137 65.98 135.617 66.16 135.99 66.52C136.377 66.8667 136.57 67.3067 136.57 67.84C136.57 68.36 136.377 68.8 135.99 69.16C135.617 69.5067 135.137 69.68 134.55 69.68ZM136.25 70.84V82H132.83V70.84H136.25ZM144.948 79.1V82H143.208C141.968 82 141.002 81.7 140.308 81.1C139.615 80.4867 139.268 79.4933 139.268 78.12V73.68H137.908V70.84H139.268V68.12H142.688V70.84H144.928V73.68H142.688V78.16C142.688 78.4933 142.768 78.7333 142.928 78.88C143.088 79.0267 143.355 79.1 143.728 79.1H144.948ZM157.373 76.24C157.373 76.56 157.353 76.8933 157.313 77.24H149.573C149.627 77.9333 149.847 78.4667 150.233 78.84C150.633 79.2 151.12 79.38 151.693 79.38C152.547 79.38 153.14 79.02 153.473 78.3H157.113C156.927 79.0333 156.587 79.6933 156.093 80.28C155.613 80.8667 155.007 81.3267 154.273 81.66C153.54 81.9933 152.72 82.16 151.813 82.16C150.72 82.16 149.747 81.9267 148.893 81.46C148.04 80.9933 147.373 80.3267 146.893 79.46C146.413 78.5933 146.173 77.58 146.173 76.42C146.173 75.26 146.407 74.2467 146.873 73.38C147.353 72.5133 148.02 71.8467 148.873 71.38C149.727 70.9133 150.707 70.68 151.813 70.68C152.893 70.68 153.853 70.9067 154.693 71.36C155.533 71.8133 156.187 72.46 156.653 73.3C157.133 74.14 157.373 75.12 157.373 76.24ZM153.873 75.34C153.873 74.7533 153.673 74.2867 153.273 73.94C152.873 73.5933 152.373 73.42 151.773 73.42C151.2 73.42 150.713 73.5867 150.313 73.92C149.927 74.2533 149.687 74.7267 149.593 75.34H153.873Z" fill="white"/>
<path d="M84.46 101.1V104H82.72C81.48 104 80.5133 103.7 79.82 103.1C79.1267 102.487 78.78 101.493 78.78 100.12V95.68H77.42V92.84H78.78V90.12H82.2V92.84H84.44V95.68H82.2V100.16C82.2 100.493 82.28 100.733 82.44 100.88C82.6 101.027 82.8667 101.1 83.24 101.1H84.46ZM85.685 98.4C85.685 97.2533 85.8983 96.2467 86.325 95.38C86.765 94.5133 87.3583 93.8467 88.105 93.38C88.8517 92.9133 89.685 92.68 90.605 92.68C91.3917 92.68 92.0783 92.84 92.665 93.16C93.265 93.48 93.725 93.9 94.045 94.42V92.84H97.465V104H94.045V102.42C93.7117 102.94 93.245 103.36 92.645 103.68C92.0583 104 91.3717 104.16 90.585 104.16C89.6783 104.16 88.8517 103.927 88.105 103.46C87.3583 102.98 86.765 102.307 86.325 101.44C85.8983 100.56 85.685 99.5467 85.685 98.4ZM94.045 98.42C94.045 97.5667 93.805 96.8933 93.325 96.4C92.8583 95.9067 92.285 95.66 91.605 95.66C90.925 95.66 90.345 95.9067 89.865 96.4C89.3983 96.88 89.165 97.5467 89.165 98.4C89.165 99.2533 89.3983 99.9333 89.865 100.44C90.345 100.933 90.925 101.18 91.605 101.18C92.285 101.18 92.8583 100.933 93.325 100.44C93.805 99.9467 94.045 99.2733 94.045 98.42ZM103.359 94.42C103.679 93.9 104.139 93.48 104.739 93.16C105.339 92.84 106.026 92.68 106.799 92.68C107.719 92.68 108.553 92.9133 109.299 93.38C110.046 93.8467 110.633 94.5133 111.059 95.38C111.499 96.2467 111.719 97.2533 111.719 98.4C111.719 99.5467 111.499 100.56 111.059 101.44C110.633 102.307 110.046 102.98 109.299 103.46C108.553 103.927 107.719 104.16 106.799 104.16C106.013 104.16 105.326 104.007 104.739 103.7C104.153 103.38 103.693 102.96 103.359 102.44V104H99.9392V89.2H103.359V94.42ZM108.239 98.4C108.239 97.5467 107.999 96.88 107.519 96.4C107.053 95.9067 106.473 95.66 105.779 95.66C105.099 95.66 104.519 95.9067 104.039 96.4C103.573 96.8933 103.339 97.5667 103.339 98.42C103.339 99.2733 103.573 99.9467 104.039 100.44C104.519 100.933 105.099 101.18 105.779 101.18C106.459 101.18 107.039 100.933 107.519 100.44C107.999 99.9333 108.239 99.2533 108.239 98.4ZM118.053 104.16C117.08 104.16 116.213 103.993 115.453 103.66C114.693 103.327 114.093 102.873 113.653 102.3C113.213 101.713 112.967 101.06 112.913 100.34H116.293C116.333 100.727 116.513 101.04 116.833 101.28C117.153 101.52 117.547 101.64 118.013 101.64C118.44 101.64 118.767 101.56 118.993 101.4C119.233 101.227 119.353 101.007 119.353 100.74C119.353 100.42 119.187 100.187 118.853 100.04C118.52 99.88 117.98 99.7067 117.233 99.52C116.433 99.3333 115.767 99.14 115.233 98.94C114.7 98.7267 114.24 98.4 113.853 97.96C113.467 97.5067 113.273 96.9 113.273 96.14C113.273 95.5 113.447 94.92 113.793 94.4C114.153 93.8667 114.673 93.4467 115.353 93.14C116.047 92.8333 116.867 92.68 117.813 92.68C119.213 92.68 120.313 93.0267 121.113 93.72C121.927 94.4133 122.393 95.3333 122.513 96.48H119.353C119.3 96.0933 119.127 95.7867 118.833 95.56C118.553 95.3333 118.18 95.22 117.713 95.22C117.313 95.22 117.007 95.3 116.793 95.46C116.58 95.6067 116.473 95.8133 116.473 96.08C116.473 96.4 116.64 96.64 116.973 96.8C117.32 96.96 117.853 97.12 118.573 97.28C119.4 97.4933 120.073 97.7067 120.593 97.92C121.113 98.12 121.567 98.4533 121.953 98.92C122.353 99.3733 122.56 99.9867 122.573 100.76C122.573 101.413 122.387 102 122.013 102.52C121.653 103.027 121.127 103.427 120.433 103.72C119.753 104.013 118.96 104.16 118.053 104.16Z" fill="white"/>
</svg>
